<svg width="17" height="18" viewBox="0 0 17 18" fill="none" xmlns="http://www.w3.org/2000/svg">
<path d="M13.2529 5.60708C13.1871 5.54069 13.1087 5.488 13.0224 5.45204C12.9361 5.41607 12.8435 5.39756 12.75 5.39756C12.6565 5.39756 12.5639 5.41607 12.4776 5.45204C12.3913 5.488 12.3129 5.54069 12.2471 5.60708L6.96999 10.8913L4.7529 8.66708C4.68453 8.60104 4.60382 8.54911 4.51538 8.51426C4.42695 8.4794 4.33251 8.46231 4.23746 8.46396C4.14242 8.4656 4.04863 8.48595 3.96145 8.52384C3.87427 8.56173 3.7954 8.61642 3.72936 8.68479C3.66332 8.75316 3.61139 8.83387 3.57653 8.92231C3.54168 9.01075 3.52459 9.10519 3.52623 9.20023C3.52788 9.29527 3.54822 9.38907 3.58612 9.47625C3.62401 9.56343 3.6787 9.64229 3.74707 9.70833L6.46707 12.4283C6.53292 12.4947 6.61126 12.5474 6.69758 12.5834C6.78389 12.6193 6.87648 12.6379 6.96999 12.6379C7.06349 12.6379 7.15608 12.6193 7.24239 12.5834C7.32871 12.5474 7.40705 12.4947 7.4729 12.4283L13.2529 6.64833C13.3248 6.582 13.3822 6.5015 13.4214 6.4119C13.4607 6.32229 13.4809 6.22553 13.4809 6.12771C13.4809 6.02989 13.4607 5.93312 13.4214 5.84352C13.3822 5.75392 13.3248 5.67341 13.2529 5.60708Z" fill="white"/>
</svg>
