<svg width="246" height="49" viewBox="0 0 246 49" fill="none" xmlns="http://www.w3.org/2000/svg">
<g clip-path="url(#clip0_1_35)">
<path fill-rule="evenodd" clip-rule="evenodd" d="M129.801 46.5872C131.723 45.3566 132.987 43.6832 133.6 41.5699H136.251V47.7773H143.37V40.8652H138.774V0H132.353V20.1838C131.665 18.9961 130.67 18.0023 129.37 17.2024C127.551 16.015 125.463 15.4198 123.118 15.4198C121.096 15.4198 118.926 15.7936 117.092 16.544C115.302 17.2485 113.753 18.3037 112.441 19.7125C111.131 21.1185 110.107 22.8609 109.363 24.9282C108.665 26.9552 108.313 29.287 108.313 31.9293C108.313 35.4515 108.924 38.4446 110.147 40.9087C111.369 43.3727 113.051 45.2445 115.189 46.5211C117.378 47.7977 119.711 48.436 122.594 48.436C125.478 48.436 127.881 47.8207 129.801 46.5872ZM132.353 30.1467V33.3813L132.35 33.3842H132.356C132.356 36.1588 131.615 38.4273 130.129 40.187C128.643 41.9466 126.481 42.8293 123.643 42.8293C120.806 42.8293 118.621 41.7942 117.092 39.7269C115.563 37.6539 114.8 35.0346 114.8 31.8661C114.8 29.6205 115.17 27.7056 115.915 26.1214C116.656 24.4911 117.703 23.2404 119.057 22.3577C120.452 21.475 122.049 21.0351 123.837 21.0351C125.498 21.0351 126.96 21.3888 128.227 22.0932C129.492 22.7516 130.494 23.7637 131.238 25.1294C131.983 26.4923 132.353 28.1657 132.353 30.1467Z" fill="black"/>
<path d="M12.5066 18.6525C11.4143 19.7105 10.63 20.9843 10.148 22.4823H6.97894V16.082H0V22.9941H5.03717V47.7756H11.4571V28.6899C11.4571 26.4012 12.1986 24.5754 13.6845 23.2097C15.2104 21.8469 17.0471 21.1625 19.1861 21.1625C21.5447 21.1625 23.2673 21.7778 24.3597 23.0113C25.4492 24.2419 25.9967 25.8722 25.9967 27.8963V47.7756H32.4823V28.6899C32.4823 26.4012 33.2239 24.5754 34.7097 23.2097C36.2356 21.8009 38.0723 21.0964 40.2113 21.0964C42.5699 21.0964 44.2698 21.7117 45.3193 22.9452C46.4088 24.1758 46.9563 25.829 46.9563 27.8963V47.7698H53.4419V26.7721C53.4419 24.308 52.9628 22.235 52.0016 20.5645C51.0833 18.848 49.777 17.5714 48.0715 16.7347C46.3688 15.852 44.3582 15.4121 42.0452 15.4121C40.2998 15.4121 38.6199 15.7198 37.0028 16.3379C35.3856 16.913 33.9682 17.7899 32.7447 18.9803C32.128 19.6035 31.6066 20.3048 31.1807 21.0841C30.8912 20.484 30.5389 19.9152 30.1237 19.377C29.2054 18.1436 27.9847 17.1775 26.4559 16.4731C24.9301 15.7687 23.1163 15.415 21.02 15.415C19.363 15.415 17.7915 15.7025 16.3055 16.2747C14.8652 16.8037 13.5989 17.5944 12.5066 18.6525Z" fill="black"/>
<path d="M60.7396 16.082V47.7785H67.1598V16.082H60.7396Z" fill="black"/>
<path d="M75.078 47.7776V16.0812H81.3672V20.9127C81.7957 20.0742 82.3408 19.3231 83.001 18.6574C84.0961 17.5994 85.3767 16.8086 86.8514 16.2796C88.3632 15.7074 89.9232 15.4199 91.5176 15.4199C93.7873 15.4199 95.9295 15.8598 97.6749 16.7425C99.4634 17.5792 100.841 18.8328 101.801 20.5062C102.763 22.1767 103.243 24.2497 103.243 26.7138V47.7776H96.7567V27.8984C96.7567 25.8311 96.1888 24.2008 95.0507 23.0134C93.9162 21.7799 92.1249 21.1646 89.6805 21.1646C87.453 21.1646 85.5306 21.8489 83.9169 23.2118C82.3026 24.5344 81.4926 26.3601 81.4926 28.6919V47.7776H75.078Z" fill="black"/>
<path fill-rule="evenodd" clip-rule="evenodd" d="M148.937 47.7775V47.7747H155.288V44.0434C156.056 45.1321 157.061 46.0464 158.301 46.7856C160.269 47.884 162.516 48.436 165.048 48.436C167.23 48.436 169.195 48.0622 170.943 47.3117C172.692 46.5642 174.195 45.463 175.464 44.011C176.777 42.5159 177.754 40.7304 178.41 38.6631C179.109 36.5469 179.46 34.172 179.46 31.5297C179.46 28.0075 178.849 25.0604 177.626 22.6826C176.406 20.2617 174.742 18.4589 172.649 17.2686C170.556 16.038 168.169 15.4198 165.707 15.4198C163.968 15.4198 162.334 15.6843 160.805 16.2134C159.319 16.7424 158.047 17.4899 156.986 18.4589C156.329 19.0585 155.786 19.7242 155.357 20.458V0H148.937V47.7747H148.932L148.937 47.7775ZM155.357 34.5027C155.357 36.2221 155.774 37.7171 156.604 38.9937C157.433 40.2272 158.503 41.1732 159.812 41.8316C161.167 42.4929 162.651 42.8235 164.266 42.8235C166.055 42.8235 167.606 42.3606 168.919 41.4348C170.231 40.509 171.232 39.2123 171.93 37.5389C172.629 35.8224 172.98 33.8615 172.98 31.662C172.98 28.3612 172.193 25.762 170.621 23.8672C169.093 21.9753 166.976 21.0294 164.266 21.0294C162.695 21.0294 161.232 21.383 159.878 22.0874C158.523 22.7488 157.433 23.7148 156.604 24.9914C155.774 26.268 155.357 27.8753 155.357 29.8103V34.4969H155.36L155.357 34.5027Z" fill="black"/>
<path d="M60.7309 3.69531H67.2672V10.6073H60.7309V3.69531Z" fill="black"/>
<path fill-rule="evenodd" clip-rule="evenodd" d="M198.593 48.3185C195.587 48.3185 192.932 47.6802 190.622 46.4094C188.358 45.1357 186.572 43.2696 185.266 40.8113C183.957 38.353 183.307 35.3455 183.307 31.7889C183.307 29.1551 183.655 26.8061 184.353 24.7417C185.095 22.6802 186.136 20.9636 187.488 19.6065C188.84 18.2437 190.448 17.2144 192.321 16.51C194.192 15.7624 196.286 15.3886 198.593 15.3886C201.642 15.3886 204.298 16.0269 206.562 17.2978C208.826 18.5284 210.569 20.3713 211.787 22.8297C213.05 25.2449 213.681 28.2293 213.681 31.786C213.681 34.4197 213.333 36.7687 212.634 38.8331C211.938 40.8515 210.914 42.5652 209.562 43.9683C208.254 45.3743 206.668 46.4496 204.791 47.1943C202.963 47.9419 200.892 48.3157 198.585 48.3157H198.588L198.593 48.3185ZM198.593 42.7262C200.031 42.7262 201.294 42.4847 202.384 42.0016C203.474 41.4755 204.365 40.7481 205.062 39.828C205.804 38.905 206.348 37.7664 206.696 36.4036C207.089 35.0408 207.287 33.5053 207.287 31.7918C207.287 28.3242 206.545 25.6675 205.065 23.8245C203.627 21.9383 201.471 20.9924 198.596 20.9924C196.768 20.9924 195.176 21.4093 193.828 22.246C192.476 23.0798 191.455 24.3075 190.756 25.9349C190.06 27.5134 189.709 29.4686 189.709 31.7946C189.709 35.219 190.494 37.8987 192.06 39.828C193.671 41.7602 195.85 42.7262 198.593 42.7262Z" fill="black"/>
<path d="M230.075 35.8141L238.07 47.6599H245.582L234.016 31.2031L244.93 16.0469H237.611L230.358 26.9343L222.98 16.0469H215.468L226.402 31.6011L214.813 47.6599H222.13L230.075 35.8141Z" fill="black"/>
</g>
<defs>
<clipPath id="clip0_1_35">
<rect width="246" height="49" fill="white"/>
</clipPath>
</defs>
</svg>
